<?xml version="1.0" encoding="utf-8"?>
<!-- Generator: Adobe Illustrator 22.1.0, SVG Export Plug-In . SVG Version: 6.00 Build 0)  -->
<svg version="1.1" id="Layer_1" xmlns="http://www.w3.org/2000/svg" xmlns:xlink="http://www.w3.org/1999/xlink" x="0px" y="0px"
	 viewBox="0 0 283 138" enable-background="new 0 0 283 138" xml:space="preserve">
<g opacity="0.92">
	<path fill="#7C4DFF" d="M46.6,9.4c-2.5-0.8-5.3,0.5-6.1,3l-5.3,15.7c-0.8,2.5-2.2,6.6-3.1,9.1L26.7,53c-0.8,2.5-3.3,4-5.4,3.3
		c-2.1-0.7-5.6-1.9-7.7-2.6s-3.4,0.8-2.8,3.4l4.5,20.3c0.6,2.6,1.5,6.8,2.1,9.4l4.5,20.3c0.6,2.6,2.7,3.3,4.7,1.6l15.9-13.4
		c2-1.7,5.3-4.5,7.4-6.2l15.9-13.4c2-1.7,1.9-3.7-0.2-4.4c-2.1-0.7-5.6-1.9-7.7-2.6c-2.1-0.7-3.2-3.4-2.3-5.9L60.8,47
		c0.8-2.5,2.2-6.6,3.1-9.1l5.3-15.7c0.8-2.5-0.5-5.3-3-6.1l-5.2-1.8c-2.5-0.8-6.6-2.2-9.1-3.1L46.6,9.4z"/>
</g>
<g opacity="0.4">
	<path fill="#7C4DFF" d="M83.8,127.6c2.5,0.8,5.3-0.5,6.1-3l5.3-15.7c0.8-2.5,2.2-6.6,3.1-9.1l5.3-15.7c0.8-2.5,3.3-4,5.4-3.3
		c2.1,0.7,5.6,1.9,7.7,2.6c2.1,0.7,3.4-0.8,2.8-3.4l-4.5-20.3c-0.6-2.6-1.5-6.8-2.1-9.4l-4.5-20.3c-0.6-2.6-2.7-3.3-4.7-1.6L88,41.7
		c-2,1.7-5.3,4.5-7.4,6.2L64.7,61.4c-2,1.7-1.9,3.7,0.2,4.4c2.1,0.7,5.6,1.9,7.7,2.6c2.1,0.7,3.2,3.4,2.3,5.9L69.6,90
		c-0.8,2.5-2.2,6.6-3.1,9.1l-5.3,15.7c-0.8,2.5,0.5,5.3,3,6.1l5.2,1.8c2.5,0.8,6.6,2.2,9.1,3.1L83.8,127.6z"/>
</g>
<text transform="matrix(1 0 0 1 123.5908 62.3809)" fill="#7C4DFF" font-family="'Quicksand-Light'" font-size="59.2721px">Solid</text>
<text transform="matrix(1 0 0 1 123.5918 124.0005)" fill="#7C4DFF" font-family="'Quicksand-Regular'" font-size="69.441px">Feed</text>
</svg>
