<?xml version="1.0" encoding="utf-8"?>
<!-- Generator: Adobe Illustrator 22.1.0, SVG Export Plug-In . SVG Version: 6.00 Build 0)  -->
<svg version="1.1" id="Layer_1" xmlns="http://www.w3.org/2000/svg" xmlns:xlink="http://www.w3.org/1999/xlink" x="0px" y="0px"
	 viewBox="0 0 283 138" enable-background="new 0 0 283 138" xml:space="preserve">
<g opacity="0.92">
	<path fill="#7C4DFF" d="M46.6,9.4c-2.5-0.8-5.3,0.5-6.1,3l-5.3,15.7c-0.8,2.5-2.2,6.6-3.1,9.1L26.7,53c-0.8,2.5-3.3,4-5.4,3.3
		c-2.1-0.7-5.6-1.9-7.7-2.6s-3.4,0.8-2.8,3.4l4.5,20.3c0.6,2.6,1.5,6.8,2.1,9.4l4.5,20.3c0.6,2.6,2.7,3.3,4.7,1.6l15.9-13.4
		c2-1.7,5.3-4.5,7.4-6.2l15.9-13.4c2-1.7,1.9-3.7-0.2-4.4c-2.1-0.7-5.6-1.9-7.7-2.6c-2.1-0.7-3.2-3.4-2.3-5.9L60.8,47
		c0.8-2.5,2.2-6.6,3.1-9.1l5.3-15.7c0.8-2.5-0.5-5.3-3-6.1l-5.2-1.8c-2.5-0.8-6.6-2.2-9.1-3.1L46.6,9.4z"/>
</g>
<g opacity="0.4">
	<path fill="#7C4DFF" d="M83.8,127.6c2.5,0.8,5.3-0.5,6.1-3l5.3-15.7c0.8-2.5,2.2-6.6,3.1-9.1l5.3-15.7c0.8-2.5,3.3-4,5.4-3.3
		c2.1,0.7,5.6,1.9,7.7,2.6c2.1,0.7,3.4-0.8,2.8-3.4l-4.5-20.3c-0.6-2.6-1.5-6.8-2.1-9.4l-4.5-20.3c-0.6-2.6-2.7-3.3-4.7-1.6L88,41.7
		c-2,1.7-5.3,4.5-7.4,6.2L64.7,61.4c-2,1.7-1.9,3.7,0.2,4.4c2.1,0.7,5.6,1.9,7.7,2.6c2.1,0.7,3.2,3.4,2.3,5.9L69.6,90
		c-0.8,2.5-2.2,6.6-3.1,9.1l-5.3,15.7c-0.8,2.5,0.5,5.3,3,6.1l5.2,1.8c2.5,0.8,6.6,2.2,9.1,3.1L83.8,127.6z"/>
</g>
<g>
	<path fill="#7C4DFF" d="M132.5,61.5c-2.2-1-4.3-2.6-6.5-4.7c-0.2-0.2-0.4-0.5-0.4-0.9c0-0.3,0.1-0.6,0.4-0.9s0.6-0.4,0.9-0.4
		c0.4,0,0.7,0.2,1,0.5c1.5,1.8,3.4,3.2,5.5,4.1c2.1,0.9,4.3,1.4,6.7,1.4c3,0,5.6-0.7,7.5-2.2c2-1.5,3-3.4,3-5.8
		c0-1.9-0.6-3.5-1.5-4.7c-1-1.2-2.2-2.2-3.6-2.9c-1.4-0.7-3.4-1.6-5.9-2.5c-2.7-1-4.9-1.9-6.4-2.7c-1.5-0.8-2.8-1.9-3.9-3.4
		s-1.6-3.4-1.6-5.7c0-1.9,0.5-3.7,1.6-5.3c1.1-1.6,2.6-2.8,4.6-3.7c2-0.9,4.3-1.4,6.9-1.4c2.3,0,4.5,0.4,6.6,1.3
		c2.1,0.9,3.8,2,5,3.6c0.4,0.6,0.6,1,0.6,1.2c0,0.3-0.1,0.6-0.4,0.9c-0.3,0.3-0.6,0.4-1,0.4c-0.3,0-0.6-0.1-0.8-0.4
		c-1.1-1.4-2.5-2.5-4.3-3.4c-1.7-0.8-3.7-1.2-5.7-1.2c-3,0-5.5,0.7-7.5,2.1c-2,1.4-3,3.4-3,5.8c0,1.7,0.5,3.1,1.5,4.3
		c1,1.2,2.2,2.1,3.6,2.9c1.5,0.7,3.3,1.5,5.5,2.3c2.8,1,5,1.9,6.6,2.7c1.6,0.8,3,2,4.1,3.6c1.1,1.6,1.7,3.7,1.7,6.3
		c0,1.8-0.5,3.5-1.6,5.1c-1.1,1.6-2.6,2.8-4.6,3.8c-2,0.9-4.3,1.4-6.8,1.4C137.2,63,134.7,62.5,132.5,61.5z"/>
	<path fill="#7C4DFF" d="M186.4,55.4c-1.3,2.4-3,4.2-5.2,5.6s-4.7,2-7.4,2s-5.2-0.7-7.4-2c-2.2-1.4-4-3.2-5.3-5.6
		c-1.3-2.4-1.9-5-1.9-7.9c0-2.9,0.6-5.6,1.9-7.9c1.3-2.4,3-4.2,5.2-5.6c2.2-1.4,4.7-2,7.5-2c2.7,0,5.2,0.7,7.4,2
		c2.2,1.4,4,3.2,5.2,5.6c1.3,2.4,1.9,5,1.9,7.9C188.3,50.4,187.6,53,186.4,55.4z M184.3,40.6c-1-2-2.5-3.6-4.4-4.8
		c-1.9-1.2-4-1.7-6.3-1.7c-2.3,0-4.4,0.6-6.3,1.7c-1.9,1.2-3.3,2.8-4.4,4.8c-1.1,2-1.6,4.3-1.6,6.8c0,2.5,0.5,4.7,1.6,6.8
		c1.1,2,2.5,3.6,4.4,4.8c1.9,1.2,4,1.7,6.3,1.7c2.3,0,4.4-0.6,6.3-1.7c1.9-1.1,3.3-2.7,4.4-4.8c1-2,1.6-4.3,1.6-6.8
		C185.9,44.9,185.4,42.6,184.3,40.6z"/>
	<path fill="#7C4DFF" d="M198.3,62c-0.2,0.2-0.5,0.4-0.8,0.4c-0.4,0-0.6-0.1-0.9-0.4c-0.2-0.2-0.3-0.5-0.3-0.8V19.7
		c0-0.3,0.1-0.6,0.4-0.8c0.2-0.2,0.5-0.4,0.8-0.4c0.4,0,0.6,0.1,0.9,0.4c0.2,0.2,0.3,0.5,0.3,0.8v41.5
		C198.7,61.5,198.6,61.8,198.3,62z"/>
	<path fill="#7C4DFF" d="M208.5,27.3c-0.4-0.4-0.6-0.8-0.6-1.4v-0.5c0-0.6,0.2-1,0.6-1.4c0.4-0.4,0.9-0.5,1.5-0.5
		c0.6,0,1,0.2,1.4,0.5c0.4,0.4,0.6,0.8,0.6,1.4v0.5c0,0.6-0.2,1-0.6,1.4c-0.4,0.4-0.9,0.5-1.5,0.5C209.4,27.8,208.9,27.6,208.5,27.3
		z M210.8,62c-0.2,0.2-0.5,0.4-0.8,0.4c-0.4,0-0.6-0.1-0.9-0.4c-0.2-0.2-0.3-0.5-0.3-0.8V33c0-0.3,0.1-0.6,0.4-0.8
		c0.2-0.2,0.5-0.4,0.8-0.4c0.4,0,0.6,0.1,0.9,0.4c0.2,0.2,0.3,0.5,0.3,0.8v28.2C211.2,61.5,211.1,61.8,210.8,62z"/>
	<path fill="#7C4DFF" d="M246.1,18.9c0.2,0.2,0.3,0.5,0.3,0.8v41.5c0,0.3-0.1,0.6-0.4,0.8c-0.2,0.2-0.5,0.4-0.8,0.4
		c-0.4,0-0.6-0.1-0.9-0.4c-0.2-0.2-0.3-0.5-0.3-0.8v-5.6c-0.9,2.1-2.5,3.9-4.5,5.3s-4.3,2.1-6.9,2.1c-2.6,0-4.9-0.7-7-2
		c-2.1-1.4-3.7-3.2-4.9-5.6c-1.2-2.4-1.8-5-1.8-7.9c0-2.9,0.6-5.6,1.8-7.9c1.2-2.4,2.9-4.2,4.9-5.6c2.1-1.3,4.4-2,7-2
		c2.5,0,4.7,0.7,6.8,2.1c2.1,1.4,3.6,3.2,4.6,5.4V19.7c0-0.3,0.1-0.6,0.3-0.8c0.2-0.2,0.5-0.4,0.9-0.4S245.9,18.6,246.1,18.9z
		 M238.8,59c1.7-1.1,3.1-2.7,4.1-4.8c1-2,1.5-4.3,1.5-6.8c0-2.5-0.5-4.8-1.5-6.8c-1-2-2.4-3.6-4.1-4.7c-1.8-1.1-3.7-1.7-5.9-1.7
		c-2.1,0-4.1,0.6-5.8,1.7c-1.8,1.1-3.1,2.7-4.1,4.8c-1,2-1.5,4.3-1.5,6.8c0,2.5,0.5,4.8,1.5,6.8c1,2,2.4,3.6,4.1,4.8
		c1.7,1.2,3.7,1.7,5.9,1.7C235,60.7,237,60.1,238.8,59z"/>
</g>
<g>
	<path fill="#7C4DFF" d="M159,76c0.4,0.4,0.6,0.9,0.6,1.5c0,0.6-0.2,1-0.6,1.4c-0.4,0.4-0.9,0.6-1.5,0.6h-23.1v17.4h20
		c0.6,0,1.1,0.2,1.5,0.6s0.6,0.9,0.6,1.5c0,0.6-0.2,1.1-0.6,1.5c-0.4,0.4-0.9,0.6-1.5,0.6h-20v21c0,0.6-0.2,1.1-0.6,1.5
		c-0.4,0.4-0.9,0.6-1.5,0.6c-0.6,0-1.2-0.2-1.6-0.6c-0.4-0.4-0.6-0.9-0.6-1.5V77.5c0-0.6,0.2-1.1,0.6-1.5c0.4-0.4,0.9-0.6,1.5-0.6
		h25.3C158.1,75.4,158.6,75.6,159,76z"/>
	<path fill="#7C4DFF" d="M196.7,105.6c-0.4,0.4-0.9,0.6-1.5,0.6H169c0,2.8,0.6,5.3,1.7,7.5c1.1,2.2,2.8,3.9,4.9,5.2
		c2.1,1.3,4.6,1.9,7.5,1.9c2.2,0,4.2-0.5,6-1.4c1.8-0.9,3.2-2.1,4.2-3.5c0.5-0.4,1-0.6,1.5-0.6c0.5,0,0.9,0.2,1.2,0.6
		c0.4,0.4,0.6,0.8,0.6,1.2c0,0.5-0.2,1-0.7,1.5c-1.5,1.8-3.3,3.3-5.6,4.4s-4.6,1.7-7.1,1.7c-3.6,0-6.7-0.8-9.4-2.3s-4.9-3.7-6.4-6.4
		c-1.5-2.8-2.3-5.9-2.3-9.5c0-3.8,0.8-7.1,2.3-10c1.5-2.8,3.5-5,6-6.5c2.5-1.5,5.2-2.3,8-2.3c2.8,0,5.4,0.6,7.8,1.9
		c2.4,1.3,4.4,3.2,5.9,5.7c1.5,2.5,2.3,5.5,2.4,8.9C197.3,104.8,197.1,105.2,196.7,105.6z M173.8,94.5c-2.3,1.9-3.8,4.5-4.4,8H193
		v-0.6c-0.2-2.1-0.9-3.9-2.1-5.5c-1.2-1.6-2.6-2.7-4.3-3.5c-1.7-0.8-3.5-1.2-5.4-1.2C178.5,91.7,176.1,92.6,173.8,94.5z"/>
	<path fill="#7C4DFF" d="M235.3,105.6c-0.4,0.4-0.9,0.6-1.5,0.6h-26.2c0,2.8,0.6,5.3,1.7,7.5c1.1,2.2,2.8,3.9,4.9,5.2
		c2.1,1.3,4.6,1.9,7.5,1.9c2.2,0,4.2-0.5,6-1.4c1.8-0.9,3.2-2.1,4.2-3.5c0.5-0.4,1-0.6,1.5-0.6c0.5,0,0.9,0.2,1.2,0.6
		c0.4,0.4,0.6,0.8,0.6,1.2c0,0.5-0.2,1-0.7,1.5c-1.5,1.8-3.3,3.3-5.6,4.4s-4.6,1.7-7.1,1.7c-3.6,0-6.7-0.8-9.4-2.3s-4.9-3.7-6.4-6.4
		c-1.5-2.8-2.3-5.9-2.3-9.5c0-3.8,0.8-7.1,2.3-10c1.5-2.8,3.5-5,6-6.5c2.5-1.5,5.2-2.3,8-2.3c2.8,0,5.4,0.6,7.8,1.9
		c2.4,1.3,4.4,3.2,5.9,5.7c1.5,2.5,2.3,5.5,2.4,8.9C235.9,104.8,235.7,105.2,235.3,105.6z M212.4,94.5c-2.3,1.9-3.8,4.5-4.4,8h23.7
		v-0.6c-0.2-2.1-0.9-3.9-2.1-5.5c-1.2-1.6-2.6-2.7-4.3-3.5c-1.7-0.8-3.5-1.2-5.4-1.2C217.2,91.7,214.7,92.6,212.4,94.5z"/>
	<path fill="#7C4DFF" d="M274.9,73.2c0.4,0.4,0.6,0.9,0.6,1.5v47.2c0,0.6-0.2,1.1-0.6,1.5c-0.4,0.4-0.9,0.6-1.5,0.6
		s-1.1-0.2-1.5-0.6c-0.4-0.4-0.6-0.9-0.6-1.5v-4.9c-1.2,2.1-2.9,3.9-5.2,5.4c-2.3,1.5-4.8,2.2-7.6,2.2c-3.1,0-5.8-0.8-8.3-2.4
		c-2.5-1.6-4.4-3.8-5.9-6.6c-1.4-2.8-2.2-6-2.2-9.5c0-3.5,0.7-6.6,2.2-9.4c1.4-2.8,3.4-5,5.9-6.6c2.5-1.6,5.2-2.4,8.2-2.4
		c2.7,0,5.3,0.7,7.6,2c2.3,1.4,4.1,3.1,5.3,5.3V74.7c0-0.6,0.2-1.1,0.6-1.5c0.4-0.4,0.9-0.6,1.5-0.6S274.5,72.8,274.9,73.2z
		 M265.4,118.9c1.9-1.2,3.4-3,4.5-5.2c1.1-2.2,1.6-4.8,1.6-7.5c0-2.7-0.5-5.2-1.6-7.4c-1.1-2.2-2.6-4-4.5-5.2
		c-1.9-1.3-4.1-1.9-6.5-1.9c-2.4,0-4.6,0.6-6.5,1.9c-1.9,1.3-3.4,3-4.5,5.2c-1.1,2.2-1.6,4.7-1.6,7.4c0,2.8,0.5,5.3,1.6,7.5
		c1.1,2.2,2.6,4,4.5,5.2c1.9,1.3,4.1,1.9,6.5,1.9C261.3,120.8,263.5,120.2,265.4,118.9z"/>
</g>
</svg>
